<?xml version="1.0" encoding="utf-8"?>
<!-- Generator: Adobe Illustrator 28.0.0, SVG Export Plug-In . SVG Version: 6.00 Build 0)  -->
<svg version="1.1" id="Capa_1" xmlns="http://www.w3.org/2000/svg" xmlns:xlink="http://www.w3.org/1999/xlink" x="0px" y="0px"
	 viewBox="0 0 336.1 80" style="enable-background:new 0 0 336.1 80;" xml:space="preserve">
<style type="text/css">
	.st0{fill:#094A72;}
	.st1{fill:#094A72;stroke:#064A72;stroke-width:0.5;stroke-miterlimit:10;}
</style>
<g>
	<polygon class="st0" points="48.9,22.5 61.8,44.6 69.7,44.6 48.7,8.2 13.8,71.8 52.9,71.8 52.9,64.7 25.7,64.7 	"/>
	<polygon class="st0" points="94,9.8 57.5,71.8 65.4,71.8 101.9,9.8 	"/>
</g>
<g>
	<g>
		<path class="st0" d="M119.9,16.3l-12.9,29.3h3.5l3.2-7.5H129l3.2,7.5h3.5l-12.9-29.3H119.9z M115,35.3l6.4-15l6.4,15
			C127.7,35.3,115,35.3,115,35.3z"/>
		<polygon class="st0" points="143.3,30.8 134,16.3 130,16.3 141.6,33.8 141.6,45.6 144.9,45.6 144.9,33.8 156.4,16.3 152.6,16.3 		
			"/>
		<path class="st0" d="M175.5,30.6c1.4-0.5,2.5-1.4,3.3-2.5c0.8-1.1,1.3-2.5,1.3-4c0-2.4-0.8-4.3-2.5-5.6c-1.6-1.3-4-2.1-7-2.1
			h-11.8v29.3h12.1c3,0,5.4-0.6,7.2-2.1c1.8-1.4,2.5-3.3,2.5-5.9c0-1.8-0.5-3.3-1.4-4.5C178.5,31.9,177.1,31.1,175.5,30.6z
			 M162.3,19.2h8c4.5,0,6.7,1.6,6.7,4.9c0,1.8-0.6,3-1.8,3.8c-1.1,1-2.7,1.3-4.9,1.3h-8L162.3,19.2L162.3,19.2z M175.8,41.5
			c-1.1,0.8-2.7,1.3-5.1,1.3h-8.6V32.1h8.6c4.5,0,6.7,1.8,6.7,5.4C177.4,39.4,176.9,40.7,175.8,41.5z"/>
		<rect x="186.5" y="16.3" class="st0" width="3.3" height="29.3"/>
		<polygon class="st0" points="220.9,16.3 211.6,30.8 202.4,16.3 198.4,16.3 209.9,33.8 209.9,45.6 213.2,45.6 213.2,33.8 
			224.7,16.3 		"/>
		<path class="st0" d="M232,16.3l-12.9,29.3h3.5l3.2-7.5h15.3l3.2,7.5h3.5l-12.9-29.3H232z M227.1,35.3l6.4-15l6.4,15
			C239.8,35.3,227.1,35.3,227.1,35.3z"/>
		<path class="st0" d="M257,11.4c0.3-0.5,0.8-0.6,1.4-0.6c0.3,0,0.6,0.2,1,0.3c0.3,0.2,0.8,0.5,1.4,0.8c0.6,0.5,1.3,0.8,1.9,1
			c0.5,0.2,1.1,0.3,1.6,0.3c1.1,0,2.1-0.5,2.7-1.3c0.6-0.8,1-2.1,1-3.5h-1.9c0,0.6-0.2,1.1-0.5,1.6c-0.3,0.5-0.8,0.6-1.4,0.6
			c-0.3,0-0.6-0.2-1-0.3c-0.3-0.2-0.8-0.5-1.4-0.8c-0.6-0.5-1.3-0.8-1.9-1c-0.5-0.2-1.1-0.3-1.6-0.3c-1.1,0-2.1,0.5-2.7,1.3
			c-0.6,0.8-1,2.1-1,3.5h1.9C256.4,12.3,256.7,11.9,257,11.4z"/>
		<polygon class="st0" points="269.9,39.9 252.2,16.3 249.5,16.3 249.5,45.6 252.7,45.6 252.7,22 270.4,45.6 273.1,45.6 273.1,16.3 
			269.9,16.3 		"/>
		<polygon class="st0" points="277.7,45.6 296.2,45.6 296.2,42.9 281,42.9 281,32.2 295.4,32.2 295.4,29.4 281,29.4 281,19.2 
			296.2,19.2 296.2,16.3 277.7,16.3 		"/>
		<polygon class="st0" points="302.7,42.7 319.6,18.9 319.6,16.3 298.9,16.3 298.9,19.2 315.6,19.2 298.9,43.1 298.9,45.6 
			319.9,45.6 319.9,42.7 		"/>
	</g>
</g>
<g>
	<path class="st1" d="M111.4,63.9c-0.5-0.6-1.3-1-2.2-1c-1.8,0-3,1.3-3,3c0,1.8,1.3,3,3,3c1,0,1.8-0.3,2.2-1c0,1.6-1.1,2.2-2.1,2.2
		c-0.6,0-1.4-0.3-1.9-0.8l0,0l-0.5,0.8l0,0c0.6,0.6,1.4,1,2.4,1c1.4,0,3.2-0.8,3.2-3.3v-4.8h-1.1V63.9z M109.4,68
		c-1.1,0-1.9-0.8-1.9-2.1c0-1.1,0.8-2.1,1.9-2.1c1.1,0,2.1,0.8,2.1,1.9C111.4,67.1,110.6,68,109.4,68z"/>
	<path class="st1" d="M115.2,64.1v-1h-1.1v6.2h1.1v-3c0-1.4,0.8-2.2,2.2-2.2h0.2v-1.3h-0.2C116.4,62.9,115.7,63.4,115.2,64.1z"/>
	<path class="st1" d="M123.5,63.9c-0.5-0.6-1.3-1-2.2-1c-1.8,0-3,1.4-3,3.3s1.3,3.2,3,3.2c1,0,1.8-0.3,2.2-1v0.8h1.1v-6.2h-1.1V63.9
		z M121.4,68.4c-1.1,0-2.1-1-2.1-2.2c0-1.3,0.8-2.2,2.1-2.2c1.1,0,1.9,1,1.9,2.2C123.5,67.4,122.5,68.4,121.4,68.4z"/>
	<path class="st1" d="M129.3,62.9c-1,0-1.8,0.3-2.2,1v-0.8H126v8.1h1.1v-2.5c0.5,0.6,1.3,1,2.2,1c1.8,0,3-1.4,3-3.3
		S131.1,62.9,129.3,62.9z M129.2,64.1c1.1,0,2.1,1,2.1,2.2c0,1.3-0.8,2.2-2.1,2.2c-1.1,0-1.9-1-1.9-2.2
		C127.1,65,128.1,64.1,129.2,64.1z"/>
	<path class="st1" d="M136.8,62.9c-0.8,0-1.6,0.3-2.1,1v-3h-1.1v8.4h1.1v-3.5c0-0.8,0.6-1.8,1.8-1.8c1,0,1.4,0.5,1.4,1.6v3.7h1.1
		v-3.8C139.1,63.9,138.3,62.9,136.8,62.9z"/>
	<path class="st1" d="M141.1,60.7c-0.3,0-0.8,0.3-0.8,0.8c0,0.5,0.3,0.8,0.8,0.8c0.5,0,0.8-0.3,0.8-0.8
		C141.8,61,141.4,60.7,141.1,60.7z"/>
	<rect x="140.5" y="63.1" class="st1" width="1.1" height="6.2"/>
	<path class="st1" d="M148,67.7c-0.5,0.5-1,0.6-1.8,0.6c-1.3,0-2.2-1-2.2-2.2c0-1.3,1-2.2,2.2-2.2c0.6,0,1.1,0.2,1.4,0.5l0,0
		l0.8-0.8l0,0c-0.6-0.5-1.4-0.8-2.2-0.8c-1.9,0-3.3,1.4-3.3,3.3c0,1.8,1.4,3.2,3.3,3.2c1,0,1.8-0.3,2.4-1l0,0L148,67.7L148,67.7z"/>
	<path class="st1" d="M157.5,63.9c-0.5-0.6-1.3-1-2.2-1c-1.8,0-3,1.4-3,3.3s1.3,3.2,3,3.2c1,0,1.8-0.3,2.2-1v0.8h1.1v-8.4h-1.1V63.9
		z M155.4,68.4c-1.1,0-2.1-1-2.1-2.2c0-1.3,0.8-2.2,2.1-2.2c1.1,0,1.9,1,1.9,2.2C157.5,67.4,156.7,68.4,155.4,68.4z"/>
	<path class="st1" d="M163.1,62.9c-1.8,0-3.2,1.4-3.2,3.3s1.4,3.2,3.3,3.2c0.8,0,1.8-0.3,2.4-0.8l0,0l-0.5-0.8H165
		c-0.5,0.5-1.1,0.6-1.8,0.6c-1.1,0-1.9-0.8-2.1-1.8h4.9h0.2v-0.2c0,0,0-0.2,0-0.3C166.1,64.4,164.7,62.9,163.1,62.9z M163.1,64.1
		c1,0,1.8,0.8,1.9,1.8h-3.8C161.3,64.7,162.1,64.1,163.1,64.1z"/>
	<path class="st1" d="M169.8,65.7L169.8,65.7c-0.8-0.2-1.3-0.3-1.3-0.8c0-0.5,0.5-0.8,1.1-0.8s1.1,0.2,1.6,0.5h0.2l0.5-1l0,0
		c-0.6-0.5-1.3-0.6-2.1-0.6c-1.1,0-2.2,0.6-2.2,1.9c0,1.3,1.3,1.6,2.2,1.9l0,0c0.6,0.2,1.4,0.3,1.4,1c0,0.5-0.6,0.8-1.4,0.8
		s-1.4-0.3-1.9-0.8l-0.2-0.2l-0.5,1l0,0c0.3,0.3,1.1,1,2.4,1s2.5-0.6,2.5-1.9S170.9,65.8,169.8,65.7z"/>
	<rect x="173.4" y="63.1" class="st1" width="1.1" height="6.2"/>
	<path class="st1" d="M173.9,60.7c-0.3,0-0.8,0.3-0.8,0.8c0,0.5,0.3,0.8,0.8,0.8c0.5,0,0.8-0.3,0.8-0.8
		C174.7,61,174.4,60.7,173.9,60.7z"/>
	<path class="st1" d="M180.9,63.9c-0.5-0.6-1.3-1-2.2-1c-1.8,0-3,1.3-3,3c0,1.8,1.3,3,3,3c1,0,1.8-0.3,2.2-1c0,1.6-1.1,2.2-2.1,2.2
		c-0.6,0-1.4-0.3-1.9-0.8l0,0l-0.5,0.8l0,0c0.6,0.6,1.4,1,2.4,1c1.4,0,3.2-0.8,3.2-3.3v-4.8h-1.1V63.9z M178.8,68
		c-1.1,0-1.9-0.8-1.9-2.1c0-1.1,0.8-2.1,1.9-2.1c1.1,0,2.1,0.8,2.1,1.9C180.9,67.1,180.1,68,178.8,68z"/>
	<path class="st1" d="M186.8,62.9c-0.8,0-1.6,0.3-2.1,1v-0.8h-1.1v6.2h1.1v-3.5c0-1,0.8-1.8,1.8-1.8s1.4,0.5,1.4,1.6v3.7h1.1v-3.8
		C189,63.9,188.2,62.9,186.8,62.9z"/>
	<path class="st1" d="M193.3,62.9c-1.8,0-3.2,1.4-3.2,3.3s1.4,3.2,3.3,3.2c0.8,0,1.8-0.3,2.4-0.8l0,0l-0.5-0.8h-0.2
		c-0.5,0.5-1.1,0.6-1.8,0.6c-1.1,0-1.9-0.8-2.1-1.8h4.9h0.2v-0.2c0,0,0-0.2,0-0.3C196.4,64.4,195.1,62.9,193.3,62.9z M193.3,64.1
		c1,0,1.8,0.8,1.9,1.8h-3.8C191.6,64.7,192.4,64.1,193.3,64.1z"/>
	<path class="st1" d="M198.9,64.1v-1h-1.1v6.2h1.1v-3c0-1.4,0.8-2.2,2.2-2.2h0.2v-1.3h-0.2C200,62.9,199.2,63.4,198.9,64.1z"/>
	<rect x="205.3" y="59.9" class="st1" width="1" height="11.8"/>
	<path class="st1" d="M212.9,61.7c0.5,0,0.8,0.2,1,0.3h0.2l0.3-1l0,0c-0.3-0.2-1-0.5-1.6-0.5c-0.8,0-1.8,0.3-1.8,2.1v0.3h-1v1h1v5.3
		h1.1v-5.3h1.9v-1h-1.9v-0.3C212.1,61.8,212.6,61.7,212.9,61.7z"/>
	<path class="st1" d="M219,66.6c0,0.8-0.6,1.8-1.6,1.8s-1.4-0.5-1.4-1.6v-3.8h-1.1v4c0,1.8,0.8,2.5,2.4,2.5c0.6,0,1.4-0.3,1.9-1v0.8
		h1.1v-6.2H219V66.6z"/>
	<rect x="221.7" y="60.9" class="st1" width="1.1" height="8.4"/>
	<rect x="224.4" y="60.9" class="st1" width="1.1" height="8.4"/>
	<path class="st1" d="M232.3,65.7L232.3,65.7c-0.8-0.2-1.3-0.3-1.3-0.8c0-0.5,0.5-0.8,1.1-0.8c0.6,0,1.1,0.2,1.6,0.5h0.2l0.5-1l0,0
		c-0.6-0.5-1.3-0.6-2.1-0.6c-1.1,0-2.2,0.6-2.2,1.9c0,1.3,1.3,1.6,2.2,1.9l0,0c0.6,0.2,1.4,0.3,1.4,1c0,0.5-0.6,0.8-1.4,0.8
		c-0.8,0-1.4-0.3-1.9-0.8l-0.2-0.2l-0.5,1l0,0c0.3,0.3,1.1,1,2.4,1c1.3,0,2.5-0.6,2.5-1.9C234.6,66.3,233.4,65.8,232.3,65.7z"/>
	<path class="st1" d="M239,68.2c0,0-0.5,0.3-1,0.3c-0.3,0-0.8-0.2-0.8-1v-3.3h2.1v-1h-2.1v-1.4l-1.1,0.2v1.3h-1v1h1v3.2
		c0,1.4,0.6,2.1,1.8,2.1c0.6,0,1.1-0.3,1.4-0.5l0,0L239,68.2L239,68.2z"/>
	<path class="st1" d="M245.4,63.9c-0.5-0.6-1.3-1-2.2-1c-1.8,0-3,1.4-3,3.3s1.3,3.2,3,3.2c1,0,1.8-0.3,2.2-1v0.8h1.1v-6.2h-1.1V63.9
		z M243.3,68.4c-1.1,0-2.1-1-2.1-2.2c0-1.3,0.8-2.2,2.1-2.2c1.1,0,1.9,1,1.9,2.2C245.4,67.4,244.6,68.4,243.3,68.4z"/>
	<path class="st1" d="M252.9,67.7c-0.5,0.5-1,0.6-1.8,0.6c-1.3,0-2.2-1-2.2-2.2c0-1.3,1-2.2,2.2-2.2c0.6,0,1.1,0.2,1.4,0.5l0,0
		l0.8-0.8l0,0c-0.6-0.5-1.4-0.8-2.2-0.8c-1.9,0-3.3,1.4-3.3,3.3c0,1.8,1.4,3.2,3.3,3.2c1,0,1.8-0.3,2.4-1l0,0L252.9,67.7L252.9,67.7
		z"/>
	<polygon class="st1" points="260,63.1 258.6,63.1 255.7,66.3 255.7,60.9 254.6,60.9 254.6,69.3 255.7,69.3 255.7,67.9 256.8,66.8 
		259.1,69.3 260.4,69.3 257.5,66 	"/>
	<path class="st1" d="M268.9,63.9c-0.5-0.6-1.3-1-2.2-1c-1.8,0-3,1.4-3,3.3s1.3,3.2,3,3.2c1,0,1.8-0.3,2.2-1v0.8h1.1v-8.4h-1.1V63.9
		z M266.9,68.4c-1.1,0-2.1-1-2.1-2.2c0-1.3,0.8-2.2,2.1-2.2c1.1,0,1.9,1,1.9,2.2C268.9,67.4,268.2,68.4,266.9,68.4z"/>
	<path class="st1" d="M274.5,62.9c-1.8,0-3.2,1.4-3.2,3.3s1.4,3.2,3.3,3.2c0.8,0,1.8-0.3,2.4-0.8l0,0l-0.5-0.8h-0.2
		c-0.5,0.5-1.1,0.6-1.8,0.6c-1.1,0-1.9-0.8-2.1-1.8h4.9h0.2v-0.2c0,0,0-0.2,0-0.3C277.5,64.4,276.1,62.9,274.5,62.9z M274.5,64.1
		c1,0,1.8,0.8,1.9,1.8h-3.8C272.8,64.7,273.6,64.1,274.5,64.1z"/>
	<path class="st1" d="M281.5,67.1c-0.2,0.3-0.3,0.6-0.3,1c0-0.3-0.2-0.6-0.3-1l-1.8-4h-1.3l2.7,6.2l0,0h1l2.7-6.4h-1.1L281.5,67.1z"
		/>
	<path class="st1" d="M288,62.9c-1.8,0-3.2,1.4-3.2,3.3s1.4,3.2,3.3,3.2c0.8,0,1.8-0.3,2.4-0.8l0,0l-0.5-0.8H290
		c-0.5,0.5-1.1,0.6-1.8,0.6c-1.1,0-1.9-0.8-2.1-1.8h4.9h0.2v-0.2c0,0,0-0.2,0-0.3C291.1,64.4,289.6,62.9,288,62.9z M287.9,64.1
		c1,0,1.8,0.8,1.9,1.8H286C286.1,64.7,286.9,64.1,287.9,64.1z"/>
	<rect x="292.3" y="60.9" class="st1" width="1.1" height="8.4"/>
	<path class="st1" d="M298.1,62.9c-1.9,0-3.3,1.4-3.3,3.3c0,1.8,1.4,3.2,3.3,3.2c1.9,0,3.3-1.4,3.3-3.2
		C301.3,64.4,299.8,62.9,298.1,62.9z M298.1,68.4c-1.3,0-2.1-1-2.1-2.2c0-1.3,1-2.2,2.1-2.2s2.1,1,2.1,2.2
		C300.1,67.4,299.2,68.4,298.1,68.4z"/>
	<path class="st1" d="M305.9,62.9c-1,0-1.8,0.3-2.2,1v-0.8h-1.1v8.1h1.1v-2.5c0.5,0.6,1.3,1,2.2,1c1.8,0,3-1.4,3-3.3
		S307.6,62.9,305.9,62.9z M305.7,64.1c1.1,0,2.1,1,2.1,2.2c0,1.3-0.8,2.2-2.1,2.2c-1.1,0-1.9-1-1.9-2.2
		C303.8,65,304.6,64.1,305.7,64.1z"/>
	<path class="st1" d="M313.2,62.9c-1.8,0-3.2,1.4-3.2,3.3s1.4,3.2,3.3,3.2c0.8,0,1.8-0.3,2.4-0.8l0,0l-0.5-0.8h-0.2
		c-0.5,0.5-1.1,0.6-1.8,0.6c-1.1,0-1.9-0.8-2.1-1.8h4.9h0.2v-0.2c0,0,0-0.2,0-0.3C316.1,64.4,314.8,62.9,313.2,62.9z M313,64.1
		c1,0,1.8,0.8,1.9,1.8h-3.8C311.3,64.7,312.1,64.1,313,64.1z"/>
	<path class="st1" d="M320.8,62.9c-1,0-1.8,0.5-2.2,1.1v-1h-1.1v6.2h1.1v-3c0-1.4,0.8-2.2,2.2-2.2h0.2L320.8,62.9L320.8,62.9z"/>
</g>
</svg>
